<?xml version="1.0" encoding="UTF-8" standalone="no"?>
<!-- Created with Inkscape (http://www.inkscape.org/) -->

<svg
   xmlns:dc="http://purl.org/dc/elements/1.1/"
   xmlns:cc="http://creativecommons.org/ns#"
   xmlns:rdf="http://www.w3.org/1999/02/22-rdf-syntax-ns#"
   xmlns:svg="http://www.w3.org/2000/svg"
   xmlns="http://www.w3.org/2000/svg"
   xmlns:sodipodi="http://sodipodi.sourceforge.net/DTD/sodipodi-0.dtd"
   xmlns:inkscape="http://www.inkscape.org/namespaces/inkscape"
   width="100mm"
   height="170mm"
   viewBox="0 0 354.33071 602.3622"
   id="svg2"
   version="1.1"
   inkscape:version="0.91 r13725"
   sodipodi:docname="設計圖.svg">
  <defs
     id="defs4" />
  <sodipodi:namedview
     id="base"
     pagecolor="#ffffff"
     bordercolor="#666666"
     borderopacity="1.0"
     inkscape:pageopacity="0.0"
     inkscape:pageshadow="2"
     inkscape:zoom="4.2306984"
     inkscape:cx="19.683922"
     inkscape:cy="-22.9069"
     inkscape:document-units="px"
     inkscape:current-layer="layer1"
     showgrid="false"
     inkscape:window-width="1859"
     inkscape:window-height="1056"
     inkscape:window-x="61"
     inkscape:window-y="24"
     inkscape:window-maximized="1"
     showguides="false" />
  <metadata
     id="metadata7">
    <rdf:RDF>
      <cc:Work
         rdf:about="">
        <dc:format>image/svg+xml</dc:format>
        <dc:type
           rdf:resource="http://purl.org/dc/dcmitype/StillImage" />
        <dc:title />
      </cc:Work>
    </rdf:RDF>
  </metadata>
  <g
     inkscape:label="Layer 1"
     inkscape:groupmode="layer"
     id="layer1"
     transform="translate(0,-450)">
    <path
       style="fill:#ffcc00;fill-opacity:1;stroke:none;stroke-width:30;stroke-linecap:round;stroke-miterlimit:4;stroke-dasharray:none;stroke-opacity:0.98823529"
       d="M -0.66210938 0 L -0.66210938 602.36133 L 353.66797 602.36133 L 353.66797 0 L -0.66210938 0 z M 25.271484 21.326172 A 7.9724407 7.9724407 0 0 1 28.375 21.955078 A 7.9724407 7.9724407 0 0 1 30.990234 23.744141 A 7.9724407 7.9724407 0 0 1 31.515625 24.341797 A 7.9724407 7.9724407 0 0 1 31.515625 24.34375 A 7.9724407 7.9724407 0 0 1 31.980469 24.990234 A 7.9724407 7.9724407 0 0 1 31.980469 24.992188 A 7.9724407 7.9724407 0 0 1 32.376953 25.681641 A 7.9724407 7.9724407 0 0 1 32.376953 25.683594 A 7.9724407 7.9724407 0 0 1 32.953125 27.166016 A 7.9724407 7.9724407 0 0 1 33.126953 27.943359 A 7.9724407 7.9724407 0 0 1 33.244141 29.298828 A 7.9724407 7.9724407 0 0 1 32.267578 33.121094 A 7.9724407 7.9724407 0 0 1 30.826172 35.017578 A 7.9724407 7.9724407 0 0 1 30.228516 35.542969 A 7.9724407 7.9724407 0 0 1 30.226562 35.544922 A 7.9724407 7.9724407 0 0 1 30.042969 35.675781 A 7.9724407 7.9724407 0 0 1 29.394531 36.113281 A 7.9724407 7.9724407 0 0 1 29.382812 36.121094 A 7.9724407 7.9724407 0 0 1 29.34375 36.142578 A 7.9724407 7.9724407 0 0 1 28.720703 36.478516 A 7.9724407 7.9724407 0 0 1 28.578125 36.542969 A 7.9724407 7.9724407 0 0 1 27.982422 36.789062 A 7.9724407 7.9724407 0 0 1 27.835938 36.837891 A 7.9724407 7.9724407 0 0 1 27.238281 37.017578 A 7.9724407 7.9724407 0 0 1 27.029297 37.064453 A 7.9724407 7.9724407 0 0 1 26.476562 37.173828 A 7.9724407 7.9724407 0 0 1 26.189453 37.208984 A 7.9724407 7.9724407 0 0 1 25.671875 37.257812 A 7.9724407 7.9724407 0 0 1 25.271484 37.271484 A 7.9724407 7.9724407 0 0 1 19.027344 34.255859 A 7.9724407 7.9724407 0 0 1 19.025391 34.253906 A 7.9724407 7.9724407 0 0 1 18.5625 33.605469 A 7.9724407 7.9724407 0 0 1 18.166016 32.916016 A 7.9724407 7.9724407 0 0 1 18.166016 32.914062 A 7.9724407 7.9724407 0 0 1 17.839844 32.1875 A 7.9724407 7.9724407 0 0 1 17.589844 31.429688 A 7.9724407 7.9724407 0 0 1 17.414062 30.654297 A 7.9724407 7.9724407 0 0 1 17.414062 30.652344 A 7.9724407 7.9724407 0 0 1 17.318359 29.863281 A 7.9724407 7.9724407 0 0 1 17.318359 29.861328 A 7.9724407 7.9724407 0 0 1 17.298828 29.298828 A 7.9724407 7.9724407 0 0 1 17.337891 28.501953 A 7.9724407 7.9724407 0 0 1 17.457031 27.714844 A 7.9724407 7.9724407 0 0 1 17.927734 26.193359 A 7.9724407 7.9724407 0 0 1 18.275391 25.476562 A 7.9724407 7.9724407 0 0 1 19.173828 24.162109 A 7.9724407 7.9724407 0 0 1 19.716797 23.580078 A 7.9724407 7.9724407 0 0 1 23.138672 21.617188 A 7.9724407 7.9724407 0 0 1 24.707031 21.345703 A 7.9724407 7.9724407 0 0 1 25.271484 21.326172 z M 328.01367 21.347656 A 7.9724407 7.9724407 0 0 1 335.98633 29.320312 A 7.9724407 7.9724407 0 0 1 328.01367 37.292969 A 7.9724407 7.9724407 0 0 1 320.04102 29.320312 A 7.9724407 7.9724407 0 0 1 328.01367 21.347656 z M 52.757812 45.007812 L 81.103516 45.007812 L 81.103516 204.45703 L 52.757812 204.45703 L 52.757812 45.007812 z M 160.54102 45.007812 L 188.88672 45.007812 L 188.88672 204.45703 L 160.54102 204.45703 L 160.54102 45.007812 z M 268.32422 45.007812 L 296.66992 45.007812 L 296.66992 204.45703 L 268.32422 204.45703 L 268.32422 45.007812 z M 52.488281 249.46484 L 300.51953 249.46484 L 300.51953 284.89844 L 52.488281 284.89844 L 52.488281 249.46484 z M 52.757812 399.55859 L 81.103516 399.55859 L 81.103516 559.00781 L 52.757812 559.00781 L 52.757812 399.55859 z M 160.54102 399.55859 L 188.88672 399.55859 L 188.88672 559.00781 L 160.54102 559.00781 L 160.54102 399.55859 z M 268.32422 399.55859 L 296.66992 399.55859 L 296.66992 559.00781 L 268.32422 559.00781 L 268.32422 399.55859 z M 336.82031 565.21094 A 7.9724407 7.9724407 0 0 1 344.79297 573.18359 A 7.9724407 7.9724407 0 0 1 336.82031 581.15625 A 7.9724407 7.9724407 0 0 1 328.84766 573.18359 A 7.9724407 7.9724407 0 0 1 336.82031 565.21094 z M 16.472656 566.0293 A 7.9724407 7.9724407 0 0 1 24.445312 574.00195 A 7.9724407 7.9724407 0 0 1 16.472656 581.97461 A 7.9724407 7.9724407 0 0 1 8.5 574.00195 A 7.9724407 7.9724407 0 0 1 16.472656 566.0293 z "
       transform="translate(0,450)"
       id="rect3336" />
    <g
       id="g4156"
       transform="translate(1.4182056,0)" />
    <g
       id="g4161"
       transform="translate(-1.4182056,0)" />
  </g>
</svg>
