<?xml version="1.0" encoding="UTF-8" standalone="no"?>
<!-- Created with Inkscape (http://www.inkscape.org/) -->

<svg
   xmlns:dc="http://purl.org/dc/elements/1.1/"
   xmlns:cc="http://creativecommons.org/ns#"
   xmlns:rdf="http://www.w3.org/1999/02/22-rdf-syntax-ns#"
   xmlns:svg="http://www.w3.org/2000/svg"
   xmlns="http://www.w3.org/2000/svg"
   xmlns:sodipodi="http://sodipodi.sourceforge.net/DTD/sodipodi-0.dtd"
   xmlns:inkscape="http://www.inkscape.org/namespaces/inkscape"
   width="210mm"
   height="297mm"
   viewBox="0 0 744.09448819 1052.3622047"
   id="svg2"
   version="1.1"
   inkscape:version="0.91 r13725"
   sodipodi:docname="走遠.svg"
   inkscape:export-filename="/home/lancat/Documents/Liner/設計圖/走遠.png"
   inkscape:export-xdpi="90"
   inkscape:export-ydpi="90">
  <defs
     id="defs4" />
  <sodipodi:namedview
     id="base"
     pagecolor="#ffffff"
     bordercolor="#666666"
     borderopacity="1.0"
     inkscape:pageopacity="0.0"
     inkscape:pageshadow="2"
     inkscape:zoom="1.4"
     inkscape:cx="450.60359"
     inkscape:cy="358.5393"
     inkscape:document-units="px"
     inkscape:current-layer="layer1"
     showgrid="false"
     inkscape:window-width="1859"
     inkscape:window-height="1056"
     inkscape:window-x="61"
     inkscape:window-y="24"
     inkscape:window-maximized="1" />
  <metadata
     id="metadata7">
    <rdf:RDF>
      <cc:Work
         rdf:about="">
        <dc:format>image/svg+xml</dc:format>
        <dc:type
           rdf:resource="http://purl.org/dc/dcmitype/StillImage" />
        <dc:title></dc:title>
      </cc:Work>
    </rdf:RDF>
  </metadata>
  <g
     inkscape:label="Layer 1"
     inkscape:groupmode="layer"
     id="layer1">
    <rect
       style="opacity:1;fill:#000000;fill-opacity:1;stroke:none;stroke-width:7.18599987;stroke-linecap:round;stroke-miterlimit:4;stroke-dasharray:14.37199974, 7.18599987;stroke-dashoffset:0;stroke-opacity:1"
       id="rect4136"
       width="139.47568"
       height="581.86914"
       x="323.66644"
       y="391.92163" />
    <path
       style="opacity:1;fill:#eb82d6;fill-opacity:0.55942029;stroke:none;stroke-width:7.18599987;stroke-linecap:round;stroke-miterlimit:4;stroke-dasharray:14.37199974, 7.18599986999999985;stroke-dashoffset:0;stroke-opacity:1"
       d="m 558.89754,572.52998 a 84.490077,84.490077 0 0 1 -84.49007,84.49007 84.490077,84.490077 0 0 1 -84.49008,-84.49007 84.490077,84.490077 0 0 1 84.49008,-84.49008 84.490077,84.490077 0 0 1 84.49007,84.49008 z"
       id="path4179"
       inkscape:connector-curvature="0" />
    <path
       inkscape:connector-curvature="0"
       id="path4185"
       d="m 686.57144,523.71349 a 84.490077,84.490077 0 0 1 -84.49008,84.49008 84.490077,84.490077 0 0 1 -84.49008,-84.49008 84.490077,84.490077 0 0 1 84.49008,-84.49008 84.490077,84.490077 0 0 1 84.49008,84.49008 z"
       style="opacity:1;fill:#eb82d6;fill-opacity:0.55942029;stroke:none;stroke-width:7.18599987;stroke-linecap:round;stroke-miterlimit:4;stroke-dasharray:14.37199974, 7.18599986999999985;stroke-dashoffset:0;stroke-opacity:1" />
    <path
       inkscape:connector-curvature="0"
       style="opacity:1;fill:#ff1212;fill-opacity:0.67826083;stroke:none;stroke-width:7.18599987;stroke-linecap:round;stroke-miterlimit:4;stroke-dasharray:14.37199974, 7.18599987;stroke-dashoffset:0;stroke-opacity:1"
       d="m 419.15771,657.02005 a 4.8320683,4.8320683 0 0 1 -4.83207,4.83208 4.8320683,4.8320683 0 0 1 -4.83208,-4.83208 4.8320683,4.8320683 0 0 1 4.83208,-4.83207 4.8320683,4.8320683 0 0 1 4.83207,4.83207 z"
       id="path4175" />
    <path
       inkscape:connector-curvature="0"
       id="path4173"
       d="m 498.81571,657.02005 a 84.490077,84.490077 0 0 1 -84.49007,84.49008 84.490077,84.490077 0 0 1 -84.49008,-84.49008 84.490077,84.490077 0 0 1 84.49008,-84.49007 84.490077,84.490077 0 0 1 84.49007,84.49007 z"
       style="opacity:1;fill:#eb82d6;fill-opacity:0.55942029;stroke:none;stroke-width:7.18599987;stroke-linecap:round;stroke-miterlimit:4;stroke-dasharray:14.37199974, 7.18599986999999985;stroke-dashoffset:0;stroke-opacity:1" />
    <path
       id="path4181"
       d="m 479.23954,572.52998 a 4.8320683,4.8320683 0 0 1 -4.83207,4.83207 4.8320683,4.8320683 0 0 1 -4.83207,-4.83207 4.8320683,4.8320683 0 0 1 4.83207,-4.83207 4.8320683,4.8320683 0 0 1 4.83207,4.83207 z"
       style="opacity:1;fill:#ff1212;fill-opacity:0.67826083;stroke:none;stroke-width:7.18599987;stroke-linecap:round;stroke-miterlimit:4;stroke-dasharray:14.37199974, 7.18599987;stroke-dashoffset:0;stroke-opacity:1"
       inkscape:connector-curvature="0" />
    <path
       inkscape:connector-curvature="0"
       style="opacity:1;fill:#ff1212;fill-opacity:0.67826083;stroke:none;stroke-width:7.18599987;stroke-linecap:round;stroke-miterlimit:4;stroke-dasharray:14.37199974, 7.18599987;stroke-dashoffset:0;stroke-opacity:1"
       d="m 606.91343,523.71349 a 4.8320683,4.8320683 0 0 1 -4.83207,4.83207 4.8320683,4.8320683 0 0 1 -4.83207,-4.83207 4.8320683,4.8320683 0 0 1 4.83207,-4.83207 4.8320683,4.8320683 0 0 1 4.83207,4.83207 z"
       id="path4187" />
    <g
       transform="matrix(0.93877863,0,0,0.93877863,-269.64166,-314.82176)"
       id="g4165">
      <path
         inkscape:connector-curvature="0"
         id="path4167"
         d="m 538.57144,885.21936 a 90,90 0 0 1 -90,90 90,90 0 0 1 -90,-90 90,90 0 0 1 90,-90 90,90 0 0 1 90,90 z"
         style="opacity:1;fill:#82b1eb;fill-opacity:0.64637679;stroke:none;stroke-width:7.18599987;stroke-linecap:round;stroke-miterlimit:4;stroke-dasharray:14.37199974, 7.18599987;stroke-dashoffset:0;stroke-opacity:1" />
      <path
         inkscape:connector-curvature="0"
         style="opacity:1;fill:#ff1212;fill-opacity:1;stroke:none;stroke-width:7.18599987;stroke-linecap:round;stroke-miterlimit:4;stroke-dasharray:14.37199974, 7.18599987;stroke-dashoffset:0;stroke-opacity:1"
         d="m 453.71863,885.21936 a 5.1471861,5.1471861 0 0 1 -5.14719,5.14719 5.1471861,5.1471861 0 0 1 -5.14719,-5.14719 5.1471861,5.1471861 0 0 1 5.14719,-5.14719 5.1471861,5.1471861 0 0 1 5.14719,5.14719 z"
         id="path4169" />
    </g>
    <g
       id="g4159"
       transform="matrix(0.93877863,0,0,0.93877863,-108.17174,-258.49504)">
      <path
         style="opacity:1;fill:#82b1eb;fill-opacity:0.64637679;stroke:none;stroke-width:7.18599987;stroke-linecap:round;stroke-miterlimit:4;stroke-dasharray:14.37199974, 7.18599987;stroke-dashoffset:0;stroke-opacity:1"
         d="m 538.57144,885.21936 a 90,90 0 0 1 -90,90 90,90 0 0 1 -90,-90 90,90 0 0 1 90,-90 90,90 0 0 1 90,90 z"
         id="path4161"
         inkscape:connector-curvature="0" />
      <path
         id="path4163"
         d="m 453.71863,885.21936 a 5.1471861,5.1471861 0 0 1 -5.14719,5.14719 5.1471861,5.1471861 0 0 1 -5.14719,-5.14719 5.1471861,5.1471861 0 0 1 5.14719,-5.14719 5.1471861,5.1471861 0 0 1 5.14719,5.14719 z"
         style="opacity:1;fill:#ff1212;fill-opacity:1;stroke:none;stroke-width:7.18599987;stroke-linecap:round;stroke-miterlimit:4;stroke-dasharray:14.37199974, 7.18599987;stroke-dashoffset:0;stroke-opacity:1"
         inkscape:connector-curvature="0" />
    </g>
    <g
       transform="matrix(0.93877863,0,0,0.93877863,-46.212349,-175.88252)"
       id="g4153">
      <path
         inkscape:connector-curvature="0"
         id="path4155"
         d="m 538.57144,885.21936 a 90,90 0 0 1 -90,90 90,90 0 0 1 -90,-90 90,90 0 0 1 90,-90 90,90 0 0 1 90,90 z"
         style="opacity:1;fill:#82b1eb;fill-opacity:0.64637679;stroke:none;stroke-width:7.18599987;stroke-linecap:round;stroke-miterlimit:4;stroke-dasharray:14.37199974, 7.18599987;stroke-dashoffset:0;stroke-opacity:1" />
      <path
         inkscape:connector-curvature="0"
         style="opacity:1;fill:#ff1212;fill-opacity:1;stroke:none;stroke-width:7.18599987;stroke-linecap:round;stroke-miterlimit:4;stroke-dasharray:14.37199974, 7.18599987;stroke-dashoffset:0;stroke-opacity:1"
         d="m 453.71863,885.21936 a 5.1471861,5.1471861 0 0 1 -5.14719,5.14719 5.1471861,5.1471861 0 0 1 -5.14719,-5.14719 5.1471861,5.1471861 0 0 1 5.14719,-5.14719 5.1471861,5.1471861 0 0 1 5.14719,5.14719 z"
         id="path4157" />
    </g>
    <g
       id="g4147"
       transform="matrix(0.93877863,0,0,0.93877863,-10.538761,-93.270002)">
      <path
         style="opacity:1;fill:#82b1eb;fill-opacity:0.64637679;stroke:none;stroke-width:7.18599987;stroke-linecap:round;stroke-miterlimit:4;stroke-dasharray:14.37199974, 7.18599987;stroke-dashoffset:0;stroke-opacity:1"
         d="m 538.57144,885.21936 a 90,90 0 0 1 -90,90 90,90 0 0 1 -90,-90 90,90 0 0 1 90,-90 90,90 0 0 1 90,90 z"
         id="path4149"
         inkscape:connector-curvature="0" />
      <path
         id="path4151"
         d="m 453.71863,885.21936 a 5.1471861,5.1471861 0 0 1 -5.14719,5.14719 5.1471861,5.1471861 0 0 1 -5.14719,-5.14719 5.1471861,5.1471861 0 0 1 5.14719,-5.14719 5.1471861,5.1471861 0 0 1 5.14719,5.14719 z"
         style="opacity:1;fill:#ff1212;fill-opacity:1;stroke:none;stroke-width:7.18599987;stroke-linecap:round;stroke-miterlimit:4;stroke-dasharray:14.37199974, 7.18599987;stroke-dashoffset:0;stroke-opacity:1"
         inkscape:connector-curvature="0" />
    </g>
    <g
       id="g4143"
       transform="matrix(0.93877863,0,0,0.93877863,42.032842,-8.7799249)">
      <path
         inkscape:connector-curvature="0"
         id="path4138"
         d="m 538.57144,885.21936 a 90,90 0 0 1 -90,90 90,90 0 0 1 -90,-90 90,90 0 0 1 90,-90 90,90 0 0 1 90,90 z"
         style="opacity:1;fill:#82b1eb;fill-opacity:0.64637679;stroke:none;stroke-width:7.18599987;stroke-linecap:round;stroke-miterlimit:4;stroke-dasharray:14.37199974, 7.18599987;stroke-dashoffset:0;stroke-opacity:1" />
      <path
         inkscape:connector-curvature="0"
         style="opacity:1;fill:#ff1212;fill-opacity:1;stroke:none;stroke-width:7.18599987;stroke-linecap:round;stroke-miterlimit:4;stroke-dasharray:14.37199974, 7.18599987;stroke-dashoffset:0;stroke-opacity:1"
         d="m 453.71863,885.21936 a 5.1471861,5.1471861 0 0 1 -5.14719,5.14719 5.1471861,5.1471861 0 0 1 -5.14719,-5.14719 5.1471861,5.1471861 0 0 1 5.14719,-5.14719 5.1471861,5.1471861 0 0 1 5.14719,5.14719 z"
         id="path4141" />
    </g>
    <path
       style="fill:none;fill-rule:evenodd;stroke:#ff0d0d;stroke-width:3.19184732;stroke-linecap:butt;stroke-linejoin:miter;stroke-miterlimit:4;stroke-dasharray:none;stroke-opacity:1"
       d="M 463.14211,822.91563 410.16818,737.75501 374.6287,654.60604 312.26697,570.78652 150.66294,514.4598"
       id="path4216"
       inkscape:connector-curvature="0" />
    <path
       style="fill:none;fill-rule:evenodd;stroke:#600bff;stroke-width:3.56735873;stroke-linecap:butt;stroke-linejoin:miter;stroke-miterlimit:4;stroke-dasharray:none;stroke-opacity:0.72173911"
       d="m 410.83873,739.09612 4.02334,-83.81953 58.33838,-82.4784 128.07624,-48.95061 0.67055,0"
       id="path4218"
       inkscape:connector-curvature="0" />
  </g>
</svg>
